<svg width="186" height="58" viewBox="0 0 186 58" fill="none" xmlns="http://www.w3.org/2000/svg">
<path d="M12.8548 15.6237C11.7484 15.6237 10.8276 15.2876 10.0924 14.6154C9.36412 13.9362 9 13.0644 9 12C9 10.9286 9.36412 10.0568 10.0924 9.38461C10.8206 8.71239 11.7414 8.37627 12.8548 8.37627C13.6951 8.37627 14.3708 8.57234 14.882 8.96447C15.4002 9.3566 15.7853 9.83977 16.0374 10.414L14.2098 11.2647C14.1187 10.9847 13.9472 10.7466 13.6951 10.5505C13.443 10.3474 13.1629 10.2459 12.8548 10.2459C12.3506 10.2459 11.941 10.414 11.6259 10.7501C11.3108 11.0862 11.1532 11.5028 11.1532 12C11.1532 12.4972 11.3108 12.9138 11.6259 13.2499C11.941 13.586 12.3506 13.7541 12.8548 13.7541C13.1629 13.7541 13.443 13.6561 13.6951 13.46C13.9472 13.2569 14.1187 13.0153 14.2098 12.7352L16.0374 13.5755C15.9253 13.8346 15.7853 14.0762 15.6172 14.3003C15.4492 14.5173 15.2391 14.7309 14.987 14.941C14.7349 15.1511 14.4233 15.3191 14.0522 15.4452C13.6881 15.5642 13.2889 15.6237 12.8548 15.6237Z" fill="#84D52C"/>
<path d="M12.8548 15.6237C11.7484 15.6237 10.8276 15.2876 10.0924 14.6154C9.36412 13.9362 9 13.0644 9 12C9 10.9286 9.36412 10.0568 10.0924 9.38461C10.8206 8.71239 11.7414 8.37627 12.8548 8.37627C13.6951 8.37627 14.3708 8.57234 14.882 8.96447C15.4002 9.3566 15.7853 9.83977 16.0374 10.414L14.2098 11.2647C14.1187 10.9847 13.9472 10.7466 13.6951 10.5505C13.443 10.3474 13.1629 10.2459 12.8548 10.2459C12.3506 10.2459 11.941 10.414 11.6259 10.7501C11.3108 11.0862 11.1532 11.5028 11.1532 12C11.1532 12.4972 11.3108 12.9138 11.6259 13.2499C11.941 13.586 12.3506 13.7541 12.8548 13.7541C13.1629 13.7541 13.443 13.6561 13.6951 13.46C13.9472 13.2569 14.1187 13.0153 14.2098 12.7352L16.0374 13.5755C15.9253 13.8346 15.7853 14.0762 15.6172 14.3003C15.4492 14.5173 15.2391 14.7309 14.987 14.941C14.7349 15.1511 14.4233 15.3191 14.0522 15.4452C13.6881 15.5642 13.2889 15.6237 12.8548 15.6237Z" fill="url(#paint0_linear_1_727)" fill-opacity="0.2"/>
<path d="M21.1029 15.4977H16.7019V8.49181H20.9558C21.628 8.49181 22.1427 8.67387 22.4998 9.038C22.857 9.40212 23.0355 9.81526 23.0355 10.2774C23.0355 10.7046 22.9235 11.0617 22.6994 11.3488C22.4753 11.6289 22.1882 11.8074 21.8381 11.8845C22.2233 11.9405 22.5419 12.1295 22.7939 12.4516C23.046 12.7668 23.1721 13.1484 23.1721 13.5965C23.1721 14.1217 22.9935 14.5699 22.6364 14.941C22.2793 15.3121 21.7681 15.4977 21.1029 15.4977ZM20.4622 11.0757C20.5742 11.0757 20.6722 11.0372 20.7563 10.9601C20.8403 10.8761 20.8823 10.7746 20.8823 10.6555C20.8823 10.5365 20.8403 10.442 20.7563 10.3719C20.6722 10.2949 20.5742 10.2564 20.4622 10.2564H18.8236V11.0757H20.4622ZM20.5252 13.7331C20.6792 13.7331 20.7983 13.6946 20.8823 13.6175C20.9733 13.5335 21.0188 13.425 21.0188 13.2919C21.0188 13.1659 20.9733 13.0609 20.8823 12.9768C20.7913 12.8858 20.6722 12.8403 20.5252 12.8403H18.8236V13.7331H20.5252Z" fill="#84D52C"/>
<path d="M21.1029 15.4977H16.7019V8.49181H20.9558C21.628 8.49181 22.1427 8.67387 22.4998 9.038C22.857 9.40212 23.0355 9.81526 23.0355 10.2774C23.0355 10.7046 22.9235 11.0617 22.6994 11.3488C22.4753 11.6289 22.1882 11.8074 21.8381 11.8845C22.2233 11.9405 22.5419 12.1295 22.7939 12.4516C23.046 12.7668 23.1721 13.1484 23.1721 13.5965C23.1721 14.1217 22.9935 14.5699 22.6364 14.941C22.2793 15.3121 21.7681 15.4977 21.1029 15.4977ZM20.4622 11.0757C20.5742 11.0757 20.6722 11.0372 20.7563 10.9601C20.8403 10.8761 20.8823 10.7746 20.8823 10.6555C20.8823 10.5365 20.8403 10.442 20.7563 10.3719C20.6722 10.2949 20.5742 10.2564 20.4622 10.2564H18.8236V11.0757H20.4622ZM20.5252 13.7331C20.6792 13.7331 20.7983 13.6946 20.8823 13.6175C20.9733 13.5335 21.0188 13.425 21.0188 13.2919C21.0188 13.1659 20.9733 13.0609 20.8823 12.9768C20.7913 12.8858 20.6722 12.8403 20.5252 12.8403H18.8236V13.7331H20.5252Z" fill="url(#paint1_linear_1_727)" fill-opacity="0.2"/>
<path d="M27.1662 15.4977H24.0256V8.49181H27.1557C28.2901 8.49181 29.2144 8.80342 29.9286 9.42663C30.6429 10.0428 31 10.8971 31 11.9895C31 13.0819 30.6429 13.9397 29.9286 14.5629C29.2144 15.1861 28.2936 15.4977 27.1662 15.4977ZM27.1557 13.6491C27.6669 13.6491 28.0765 13.488 28.3846 13.1659C28.6927 12.8438 28.8468 12.4516 28.8468 11.9895C28.8468 11.4923 28.7032 11.0932 28.4161 10.7921C28.129 10.491 27.7124 10.3404 27.1662 10.3404H26.1474V13.6491H27.1557Z" fill="#84D52C"/>
<path d="M27.1662 15.4977H24.0256V8.49181H27.1557C28.2901 8.49181 29.2144 8.80342 29.9286 9.42663C30.6429 10.0428 31 10.8971 31 11.9895C31 13.0819 30.6429 13.9397 29.9286 14.5629C29.2144 15.1861 28.2936 15.4977 27.1662 15.4977ZM27.1557 13.6491C27.6669 13.6491 28.0765 13.488 28.3846 13.1659C28.6927 12.8438 28.8468 12.4516 28.8468 11.9895C28.8468 11.4923 28.7032 11.0932 28.4161 10.7921C28.129 10.491 27.7124 10.3404 27.1662 10.3404H26.1474V13.6491H27.1557Z" fill="url(#paint2_linear_1_727)" fill-opacity="0.2"/>
<path d="M46.216 17H44.888V7.512H41.512V6.328H49.608V7.512H46.216V17ZM55.6253 16.024C54.9319 16.8027 54.0093 17.192 52.8573 17.192C51.7053 17.192 50.7773 16.8027 50.0733 16.024C49.3799 15.2453 49.0333 14.28 49.0333 13.128C49.0333 11.976 49.3799 11.016 50.0733 10.248C50.7773 9.46933 51.7053 9.08 52.8573 9.08C54.0093 9.08 54.9319 9.46933 55.6253 10.248C56.3293 11.016 56.6813 11.976 56.6813 13.128C56.6813 14.28 56.3293 15.2453 55.6253 16.024ZM50.9693 15.256C51.4386 15.832 52.0679 16.12 52.8573 16.12C53.6466 16.12 54.2706 15.832 54.7293 15.256C55.1879 14.6693 55.4173 13.96 55.4173 13.128C55.4173 12.296 55.1879 11.592 54.7293 11.016C54.2706 10.44 53.6466 10.152 52.8573 10.152C52.0679 10.152 51.4386 10.4453 50.9693 11.032C50.5106 11.608 50.2812 12.3067 50.2812 13.128C50.2812 13.96 50.5106 14.6693 50.9693 15.256ZM60.5895 17.192C60.0242 17.192 59.5975 17.0373 59.3095 16.728C59.0215 16.4187 58.8775 15.9707 58.8775 15.384V10.328H57.5975V9.272H58.8775V7.16H60.0775V9.272H61.6455V10.328H60.0775V15.128C60.0775 15.4267 60.1415 15.6667 60.2695 15.848C60.4082 16.0293 60.6055 16.12 60.8615 16.12C61.2135 16.12 61.4855 16.0133 61.6775 15.8L62.0295 16.696C61.6775 17.0267 61.1975 17.192 60.5895 17.192ZM69.3726 17H68.1726V16.12C67.522 16.8347 66.6686 17.192 65.6126 17.192C64.898 17.192 64.2686 16.9627 63.7246 16.504C63.1806 16.0453 62.9086 15.4213 62.9086 14.632C62.9086 13.8213 63.1753 13.1973 63.7086 12.76C64.2526 12.312 64.8873 12.088 65.6126 12.088C66.7113 12.088 67.5646 12.44 68.1726 13.144V11.752C68.1726 11.24 67.9913 10.84 67.6286 10.552C67.266 10.264 66.7966 10.12 66.2206 10.12C65.314 10.12 64.5246 10.4773 63.8526 11.192L63.2926 10.36C64.114 9.50667 65.1433 9.08 66.3806 9.08C67.266 9.08 67.986 9.29333 68.5406 9.72C69.0953 10.1467 69.3726 10.8027 69.3726 11.688V17ZM66.0446 16.328C67.0046 16.328 67.714 16.008 68.1726 15.368V13.912C67.714 13.272 67.0046 12.952 66.0446 12.952C65.49 12.952 65.0313 13.112 64.6686 13.432C64.3166 13.7413 64.1406 14.1467 64.1406 14.648C64.1406 15.1387 64.3166 15.544 64.6686 15.864C65.0313 16.1733 65.49 16.328 66.0446 16.328ZM72.9781 17H71.7781V6.328H72.9781V17ZM84.6009 17.192C83.0435 17.192 81.7369 16.68 80.6809 15.656C79.6355 14.6213 79.1129 13.2933 79.1129 11.672C79.1129 10.0507 79.6355 8.728 80.6809 7.704C81.7369 6.66933 83.0435 6.152 84.6009 6.152C86.3075 6.152 87.6569 6.856 88.6489 8.264L87.5289 8.888C87.2195 8.42933 86.8035 8.056 86.2809 7.768C85.7582 7.48 85.1982 7.336 84.6009 7.336C83.4275 7.336 82.4462 7.74667 81.6569 8.568C80.8782 9.37867 80.4889 10.4133 80.4889 11.672C80.4889 12.9307 80.8782 13.9707 81.6569 14.792C82.4462 15.6027 83.4275 16.008 84.6009 16.008C85.1982 16.008 85.7582 15.8693 86.2809 15.592C86.8035 15.304 87.2195 14.9253 87.5289 14.456L88.6649 15.08C87.6302 16.488 86.2755 17.192 84.6009 17.192ZM95.2214 17H90.3574V6.328H95.1094C96.0267 6.328 96.752 6.57867 97.2854 7.08C97.8294 7.58133 98.1014 8.23733 98.1014 9.048C98.1014 9.688 97.92 10.232 97.5574 10.68C97.1947 11.1173 96.752 11.3893 96.2294 11.496C96.7947 11.5813 97.28 11.88 97.6854 12.392C98.1014 12.904 98.3094 13.48 98.3094 14.12C98.3094 14.984 98.032 15.6827 97.4774 16.216C96.9334 16.7387 96.1814 17 95.2214 17ZM94.8854 10.952C95.472 10.952 95.9254 10.792 96.2454 10.472C96.5654 10.152 96.7254 9.74133 96.7254 9.24C96.7254 8.73867 96.56 8.328 96.2294 8.008C95.9094 7.67733 95.4614 7.512 94.8854 7.512H91.6854V10.952H94.8854ZM94.9494 15.816C95.568 15.816 96.0534 15.6507 96.4054 15.32C96.7574 14.9893 96.9334 14.5413 96.9334 13.976C96.9334 13.4533 96.7574 13.016 96.4054 12.664C96.064 12.312 95.5787 12.136 94.9494 12.136H91.6854V15.816H94.9494ZM104.068 17H100.42V6.328H104.068C105.7 6.328 107.017 6.83467 108.02 7.848C109.033 8.86133 109.54 10.136 109.54 11.672C109.54 13.2187 109.033 14.4933 108.02 15.496C107.017 16.4987 105.7 17 104.068 17ZM104.068 15.816C105.327 15.816 106.324 15.4213 107.06 14.632C107.796 13.8427 108.164 12.856 108.164 11.672C108.164 10.4773 107.801 9.48533 107.076 8.696C106.351 7.90667 105.348 7.512 104.068 7.512H101.748V15.816H104.068ZM118.18 19.624L117.46 20.184C115.956 18.1253 115.204 15.768 115.204 13.112C115.204 10.4667 115.956 8.10933 117.46 6.04L118.18 6.584C117.615 7.704 117.193 8.76 116.916 9.752C116.649 10.744 116.516 11.864 116.516 13.112C116.516 14.36 116.649 15.4853 116.916 16.488C117.193 17.48 117.615 18.5253 118.18 19.624ZM128.613 17H127.285V12.104H121.045V17H119.717V6.328H121.045V10.92H127.285V6.328H128.613V17ZM131.651 8.168C131.438 8.168 131.251 8.09333 131.091 7.944C130.931 7.784 130.851 7.592 130.851 7.368C130.851 7.144 130.931 6.952 131.091 6.792C131.251 6.632 131.438 6.552 131.651 6.552C131.875 6.552 132.067 6.632 132.227 6.792C132.387 6.952 132.467 7.144 132.467 7.368C132.467 7.592 132.387 7.784 132.227 7.944C132.067 8.09333 131.875 8.168 131.651 8.168ZM132.259 17H131.059V9.272H132.259V17ZM137.757 20.136C137.074 20.136 136.493 20.0507 136.013 19.88C135.533 19.72 135.074 19.4213 134.637 18.984L135.245 18.088C135.832 18.792 136.669 19.144 137.757 19.144C138.472 19.144 139.064 18.952 139.533 18.568C140.002 18.1947 140.237 17.6133 140.237 16.824V15.72C139.949 16.1253 139.576 16.456 139.117 16.712C138.658 16.968 138.168 17.096 137.645 17.096C136.621 17.096 135.789 16.7387 135.149 16.024C134.52 15.2987 134.205 14.3227 134.205 13.096C134.205 11.8693 134.52 10.8933 135.149 10.168C135.789 9.44267 136.621 9.08 137.645 9.08C138.701 9.08 139.565 9.53333 140.237 10.44V9.272H141.437V16.776C141.437 17.96 141.09 18.8133 140.397 19.336C139.704 19.8693 138.824 20.136 137.757 20.136ZM137.933 16.04C138.392 16.04 138.834 15.9173 139.261 15.672C139.698 15.4267 140.024 15.128 140.237 14.776V11.4C140.024 11.048 139.704 10.7547 139.277 10.52C138.85 10.2747 138.402 10.152 137.933 10.152C137.165 10.152 136.557 10.424 136.109 10.968C135.672 11.512 135.453 12.2213 135.453 13.096C135.453 13.96 135.677 14.6693 136.125 15.224C136.573 15.768 137.176 16.04 137.933 16.04ZM150.273 17H149.073V11.912C149.073 11.272 148.923 10.8187 148.625 10.552C148.326 10.2853 147.894 10.152 147.329 10.152C146.891 10.152 146.459 10.2693 146.033 10.504C145.617 10.7387 145.286 11.0213 145.041 11.352V17H143.841V6.328H145.041V10.392C145.339 10.04 145.739 9.736 146.241 9.48C146.742 9.21333 147.265 9.08 147.809 9.08C149.451 9.08 150.273 9.90133 150.273 11.544V17ZM158.33 17H157.13V10.328H155.85V9.272H157.13V8.68C157.13 7.89067 157.332 7.27733 157.738 6.84C158.143 6.392 158.687 6.168 159.37 6.168C159.86 6.168 160.25 6.25867 160.538 6.44L160.234 7.352C160.031 7.224 159.802 7.16 159.546 7.16C159.151 7.16 158.847 7.29333 158.634 7.56C158.431 7.816 158.33 8.18933 158.33 8.68V9.272H159.898V10.328H158.33V17ZM161.914 8.168C161.7 8.168 161.514 8.09333 161.354 7.944C161.194 7.784 161.114 7.592 161.114 7.368C161.114 7.144 161.194 6.952 161.354 6.792C161.514 6.632 161.7 6.552 161.914 6.552C162.138 6.552 162.33 6.632 162.49 6.792C162.65 6.952 162.73 7.144 162.73 7.368C162.73 7.592 162.65 7.784 162.49 7.944C162.33 8.09333 162.138 8.168 161.914 8.168ZM162.522 17H161.322V9.272H162.522V17ZM166.134 17H164.934V9.272H166.134V10.52C166.849 9.58133 167.708 9.112 168.71 9.112V10.344C168.561 10.312 168.401 10.296 168.23 10.296C167.868 10.296 167.473 10.424 167.046 10.68C166.62 10.936 166.316 11.2187 166.134 11.528V17ZM172.664 17.192C171.352 17.192 170.312 16.7867 169.544 15.976L170.168 15.112C170.434 15.4213 170.797 15.6827 171.256 15.896C171.725 16.1093 172.21 16.216 172.712 16.216C173.288 16.216 173.736 16.0933 174.056 15.848C174.376 15.6027 174.536 15.2827 174.536 14.888C174.536 14.5467 174.37 14.28 174.04 14.088C173.709 13.8853 173.309 13.736 172.84 13.64C172.381 13.5333 171.917 13.416 171.448 13.288C170.978 13.1493 170.578 12.92 170.248 12.6C169.917 12.2693 169.752 11.8373 169.752 11.304C169.752 10.6747 170.008 10.1467 170.52 9.72C171.042 9.29333 171.746 9.08 172.632 9.08C173.794 9.08 174.749 9.45333 175.496 10.2L174.936 11.032C174.392 10.3813 173.624 10.056 172.632 10.056C172.109 10.056 171.693 10.1733 171.384 10.408C171.074 10.632 170.92 10.92 170.92 11.272C170.92 11.5813 171.085 11.8267 171.416 12.008C171.746 12.1787 172.141 12.3173 172.6 12.424C173.069 12.52 173.538 12.6373 174.008 12.776C174.477 12.9147 174.877 13.16 175.208 13.512C175.538 13.8533 175.704 14.3013 175.704 14.856C175.704 15.5387 175.437 16.0987 174.904 16.536C174.37 16.9733 173.624 17.192 172.664 17.192ZM179.605 17.192C179.04 17.192 178.613 17.0373 178.325 16.728C178.037 16.4187 177.893 15.9707 177.893 15.384V10.328H176.613V9.272H177.893V7.16H179.093V9.272H180.661V10.328H179.093V15.128C179.093 15.4267 179.157 15.6667 179.285 15.848C179.424 16.0293 179.621 16.12 179.877 16.12C180.229 16.12 180.501 16.0133 180.693 15.8L181.045 16.696C180.693 17.0267 180.213 17.192 179.605 17.192ZM182.148 20.184L181.428 19.624C181.994 18.5253 182.415 17.48 182.692 16.488C182.97 15.4853 183.108 14.36 183.108 13.112C183.108 11.8533 182.97 10.728 182.692 9.736C182.415 8.744 181.994 7.69333 181.428 6.584L182.148 6.04C183.663 8.09867 184.42 10.456 184.42 13.112C184.42 15.7787 183.663 18.136 182.148 20.184Z" fill="white"/>
<g filter="url(#filter0_di_1_727)">
<path d="M26.0391 21.6952L28.8009 19.1756L30.2502 19.9731L33.6163 15.845M31.4284 15.7555L33.9383 15.8582M33.8494 17.9412L33.4606 15.4183" stroke="#7ACB22" stroke-width="1.06906" shape-rendering="crispEdges"/>
</g>
<defs>
<filter id="filter0_di_1_727" x="0.678406" y="0.22184" width="58.6998" height="56.8674" filterUnits="userSpaceOnUse" color-interpolation-filters="sRGB">
<feFlood flood-opacity="0" result="BackgroundImageFix"/>
<feColorMatrix in="SourceAlpha" type="matrix" values="0 0 0 0 0 0 0 0 0 0 0 0 0 0 0 0 0 0 127 0" result="hardAlpha"/>
<feOffset dy="10"/>
<feGaussianBlur stdDeviation="12.5"/>
<feComposite in2="hardAlpha" operator="out"/>
<feColorMatrix type="matrix" values="0 0 0 0 0.0588235 0 0 0 0 0.0588235 0 0 0 0 0.0901961 0 0 0 0.35 0"/>
<feBlend mode="normal" in2="BackgroundImageFix" result="effect1_dropShadow_1_727"/>
<feBlend mode="normal" in="SourceGraphic" in2="effect1_dropShadow_1_727" result="shape"/>
<feColorMatrix in="SourceAlpha" type="matrix" values="0 0 0 0 0 0 0 0 0 0 0 0 0 0 0 0 0 0 127 0" result="hardAlpha"/>
<feOffset dx="5" dy="10"/>
<feGaussianBlur stdDeviation="7.5"/>
<feComposite in2="hardAlpha" operator="arithmetic" k2="-1" k3="1"/>
<feColorMatrix type="matrix" values="0 0 0 0 1 0 0 0 0 1 0 0 0 0 1 0 0 0 0.5 0"/>
<feBlend mode="normal" in2="shape" result="effect2_innerShadow_1_727"/>
</filter>
<linearGradient id="paint0_linear_1_727" x1="31" y1="8.37628" x2="9.7467" y2="12.2594" gradientUnits="userSpaceOnUse">
<stop stop-color="#6BAB2B"/>
<stop offset="1" stop-color="#84D52C" stop-opacity="0"/>
</linearGradient>
<linearGradient id="paint1_linear_1_727" x1="31" y1="8.37628" x2="9.7467" y2="12.2594" gradientUnits="userSpaceOnUse">
<stop stop-color="#6BAB2B"/>
<stop offset="1" stop-color="#84D52C" stop-opacity="0"/>
</linearGradient>
<linearGradient id="paint2_linear_1_727" x1="31" y1="8.37628" x2="9.7467" y2="12.2594" gradientUnits="userSpaceOnUse">
<stop stop-color="#6BAB2B"/>
<stop offset="1" stop-color="#84D52C" stop-opacity="0"/>
</linearGradient>
</defs>
</svg>
