<svg width="173" height="33" viewBox="0 0 173 33" fill="none" xmlns="http://www.w3.org/2000/svg">
<path d="M3.8548 14.6237C2.74843 14.6237 1.82762 14.2876 1.09237 13.6154C0.364123 12.9362 0 12.0644 0 11C0 9.92864 0.364123 9.05684 1.09237 8.38462C1.82061 7.71239 2.74142 7.37628 3.8548 7.37628C4.69508 7.37628 5.37081 7.57234 5.88198 7.96448C6.40016 8.35661 6.78529 8.83977 7.03737 9.41397L5.20976 10.2648C5.11873 9.98466 4.94717 9.74658 4.69508 9.55051C4.443 9.34744 4.1629 9.24591 3.8548 9.24591C3.35063 9.24591 2.94099 9.41397 2.62589 9.75008C2.31078 10.0862 2.15323 10.5028 2.15323 11C2.15323 11.4972 2.31078 11.9138 2.62589 12.2499C2.94099 12.586 3.35063 12.7541 3.8548 12.7541C4.1629 12.7541 4.443 12.6561 4.69508 12.46C4.94717 12.2569 5.11873 12.0153 5.20976 11.7352L7.03737 12.5755C6.92534 12.8346 6.78529 13.0762 6.61723 13.3003C6.44918 13.5174 6.2391 13.7309 5.98702 13.941C5.73493 14.1511 5.42333 14.3191 5.0522 14.4452C4.68808 14.5642 4.28895 14.6237 3.8548 14.6237Z" fill="#84D52C"/>
<path d="M3.8548 14.6237C2.74843 14.6237 1.82762 14.2876 1.09237 13.6154C0.364123 12.9362 0 12.0644 0 11C0 9.92864 0.364123 9.05684 1.09237 8.38462C1.82061 7.71239 2.74142 7.37628 3.8548 7.37628C4.69508 7.37628 5.37081 7.57234 5.88198 7.96448C6.40016 8.35661 6.78529 8.83977 7.03737 9.41397L5.20976 10.2648C5.11873 9.98466 4.94717 9.74658 4.69508 9.55051C4.443 9.34744 4.1629 9.24591 3.8548 9.24591C3.35063 9.24591 2.94099 9.41397 2.62589 9.75008C2.31078 10.0862 2.15323 10.5028 2.15323 11C2.15323 11.4972 2.31078 11.9138 2.62589 12.2499C2.94099 12.586 3.35063 12.7541 3.8548 12.7541C4.1629 12.7541 4.443 12.6561 4.69508 12.46C4.94717 12.2569 5.11873 12.0153 5.20976 11.7352L7.03737 12.5755C6.92534 12.8346 6.78529 13.0762 6.61723 13.3003C6.44918 13.5174 6.2391 13.7309 5.98702 13.941C5.73493 14.1511 5.42333 14.3191 5.0522 14.4452C4.68808 14.5642 4.28895 14.6237 3.8548 14.6237Z" fill="url(#paint0_linear_1_731)" fill-opacity="0.2"/>
<path d="M12.1029 14.4977H7.70189V7.49182H11.9558C12.628 7.49182 13.1427 7.67388 13.4998 8.038C13.857 8.40212 14.0355 8.81526 14.0355 9.27742C14.0355 9.70456 13.9235 10.0617 13.6994 10.3488C13.4753 10.6289 13.1882 10.8074 12.8381 10.8845C13.2233 10.9405 13.5419 11.1295 13.7939 11.4517C14.046 11.7668 14.1721 12.1484 14.1721 12.5965C14.1721 13.1217 13.9935 13.5699 13.6364 13.941C13.2793 14.3121 12.7681 14.4977 12.1029 14.4977ZM11.4622 10.0757C11.5742 10.0757 11.6722 10.0372 11.7563 9.96015C11.8403 9.87612 11.8823 9.77459 11.8823 9.65555C11.8823 9.53651 11.8403 9.44198 11.7563 9.37195C11.6722 9.29493 11.5742 9.25641 11.4622 9.25641H9.8236V10.0757H11.4622ZM11.5252 12.7331C11.6792 12.7331 11.7983 12.6946 11.8823 12.6175C11.9733 12.5335 12.0188 12.425 12.0188 12.2919C12.0188 12.1659 11.9733 12.0609 11.8823 11.9768C11.7913 11.8858 11.6722 11.8403 11.5252 11.8403H9.8236V12.7331H11.5252Z" fill="#84D52C"/>
<path d="M12.1029 14.4977H7.70189V7.49182H11.9558C12.628 7.49182 13.1427 7.67388 13.4998 8.038C13.857 8.40212 14.0355 8.81526 14.0355 9.27742C14.0355 9.70456 13.9235 10.0617 13.6994 10.3488C13.4753 10.6289 13.1882 10.8074 12.8381 10.8845C13.2233 10.9405 13.5419 11.1295 13.7939 11.4517C14.046 11.7668 14.1721 12.1484 14.1721 12.5965C14.1721 13.1217 13.9935 13.5699 13.6364 13.941C13.2793 14.3121 12.7681 14.4977 12.1029 14.4977ZM11.4622 10.0757C11.5742 10.0757 11.6722 10.0372 11.7563 9.96015C11.8403 9.87612 11.8823 9.77459 11.8823 9.65555C11.8823 9.53651 11.8403 9.44198 11.7563 9.37195C11.6722 9.29493 11.5742 9.25641 11.4622 9.25641H9.8236V10.0757H11.4622ZM11.5252 12.7331C11.6792 12.7331 11.7983 12.6946 11.8823 12.6175C11.9733 12.5335 12.0188 12.425 12.0188 12.2919C12.0188 12.1659 11.9733 12.0609 11.8823 11.9768C11.7913 11.8858 11.6722 11.8403 11.5252 11.8403H9.8236V12.7331H11.5252Z" fill="url(#paint1_linear_1_731)" fill-opacity="0.2"/>
<path d="M18.1662 14.4977H15.0256V7.49182H18.1557C19.2901 7.49182 20.2144 7.80342 20.9286 8.42663C21.6429 9.04284 22 9.89713 22 10.9895C22 12.0819 21.6429 12.9397 20.9286 13.5629C20.2144 14.1861 19.2936 14.4977 18.1662 14.4977ZM18.1557 12.6491C18.6669 12.6491 19.0765 12.488 19.3846 12.1659C19.6927 11.8438 19.8468 11.4517 19.8468 10.9895C19.8468 10.4923 19.7032 10.0932 19.4161 9.79209C19.129 9.49099 18.7124 9.34044 18.1662 9.34044H17.1474V12.6491H18.1557Z" fill="#84D52C"/>
<path d="M18.1662 14.4977H15.0256V7.49182H18.1557C19.2901 7.49182 20.2144 7.80342 20.9286 8.42663C21.6429 9.04284 22 9.89713 22 10.9895C22 12.0819 21.6429 12.9397 20.9286 13.5629C20.2144 14.1861 19.2936 14.4977 18.1662 14.4977ZM18.1557 12.6491C18.6669 12.6491 19.0765 12.488 19.3846 12.1659C19.6927 11.8438 19.8468 11.4517 19.8468 10.9895C19.8468 10.4923 19.7032 10.0932 19.4161 9.79209C19.129 9.49099 18.7124 9.34044 18.1662 9.34044H17.1474V12.6491H18.1557Z" fill="url(#paint2_linear_1_731)" fill-opacity="0.2"/>
<path d="M38.216 16H36.888V6.512H33.512V5.328H41.608V6.512H38.216V16ZM47.6253 15.024C46.9319 15.8027 46.0093 16.192 44.8573 16.192C43.7053 16.192 42.7773 15.8027 42.0733 15.024C41.3799 14.2453 41.0333 13.28 41.0333 12.128C41.0333 10.976 41.3799 10.016 42.0733 9.248C42.7773 8.46933 43.7053 8.08 44.8573 8.08C46.0093 8.08 46.9319 8.46933 47.6253 9.248C48.3293 10.016 48.6813 10.976 48.6813 12.128C48.6813 13.28 48.3293 14.2453 47.6253 15.024ZM42.9693 14.256C43.4386 14.832 44.0679 15.12 44.8573 15.12C45.6466 15.12 46.2706 14.832 46.7293 14.256C47.1879 13.6693 47.4173 12.96 47.4173 12.128C47.4173 11.296 47.1879 10.592 46.7293 10.016C46.2706 9.44 45.6466 9.152 44.8573 9.152C44.0679 9.152 43.4386 9.44533 42.9693 10.032C42.5106 10.608 42.2812 11.3067 42.2812 12.128C42.2812 12.96 42.5106 13.6693 42.9693 14.256ZM52.5895 16.192C52.0242 16.192 51.5975 16.0373 51.3095 15.728C51.0215 15.4187 50.8775 14.9707 50.8775 14.384V9.328H49.5975V8.272H50.8775V6.16H52.0775V8.272H53.6455V9.328H52.0775V14.128C52.0775 14.4267 52.1415 14.6667 52.2695 14.848C52.4082 15.0293 52.6055 15.12 52.8615 15.12C53.2135 15.12 53.4855 15.0133 53.6775 14.8L54.0295 15.696C53.6775 16.0267 53.1975 16.192 52.5895 16.192ZM61.3726 16H60.1726V15.12C59.522 15.8347 58.6686 16.192 57.6126 16.192C56.898 16.192 56.2686 15.9627 55.7246 15.504C55.1806 15.0453 54.9086 14.4213 54.9086 13.632C54.9086 12.8213 55.1753 12.1973 55.7086 11.76C56.2526 11.312 56.8873 11.088 57.6126 11.088C58.7113 11.088 59.5646 11.44 60.1726 12.144V10.752C60.1726 10.24 59.9913 9.84 59.6286 9.552C59.266 9.264 58.7966 9.12 58.2206 9.12C57.314 9.12 56.5246 9.47733 55.8526 10.192L55.2926 9.36C56.114 8.50667 57.1433 8.08 58.3806 8.08C59.266 8.08 59.986 8.29333 60.5406 8.72C61.0953 9.14667 61.3726 9.80267 61.3726 10.688V16ZM58.0446 15.328C59.0046 15.328 59.714 15.008 60.1726 14.368V12.912C59.714 12.272 59.0046 11.952 58.0446 11.952C57.49 11.952 57.0313 12.112 56.6686 12.432C56.3166 12.7413 56.1406 13.1467 56.1406 13.648C56.1406 14.1387 56.3166 14.544 56.6686 14.864C57.0313 15.1733 57.49 15.328 58.0446 15.328ZM64.9781 16H63.7781V5.328H64.9781V16ZM76.6009 16.192C75.0435 16.192 73.7369 15.68 72.6809 14.656C71.6355 13.6213 71.1129 12.2933 71.1129 10.672C71.1129 9.05067 71.6355 7.728 72.6809 6.704C73.7369 5.66933 75.0435 5.152 76.6009 5.152C78.3075 5.152 79.6569 5.856 80.6489 7.264L79.5289 7.888C79.2195 7.42933 78.8035 7.056 78.2809 6.768C77.7582 6.48 77.1982 6.336 76.6009 6.336C75.4275 6.336 74.4462 6.74667 73.6569 7.568C72.8782 8.37867 72.4889 9.41333 72.4889 10.672C72.4889 11.9307 72.8782 12.9707 73.6569 13.792C74.4462 14.6027 75.4275 15.008 76.6009 15.008C77.1982 15.008 77.7582 14.8693 78.2809 14.592C78.8035 14.304 79.2195 13.9253 79.5289 13.456L80.6649 14.08C79.6302 15.488 78.2755 16.192 76.6009 16.192ZM87.2214 16H82.3574V5.328H87.1094C88.0267 5.328 88.752 5.57867 89.2854 6.08C89.8294 6.58133 90.1014 7.23733 90.1014 8.048C90.1014 8.688 89.92 9.232 89.5574 9.68C89.1947 10.1173 88.752 10.3893 88.2294 10.496C88.7947 10.5813 89.28 10.88 89.6854 11.392C90.1014 11.904 90.3094 12.48 90.3094 13.12C90.3094 13.984 90.032 14.6827 89.4774 15.216C88.9334 15.7387 88.1814 16 87.2214 16ZM86.8854 9.952C87.472 9.952 87.9254 9.792 88.2454 9.472C88.5654 9.152 88.7254 8.74133 88.7254 8.24C88.7254 7.73867 88.56 7.328 88.2294 7.008C87.9094 6.67733 87.4614 6.512 86.8854 6.512H83.6854V9.952H86.8854ZM86.9494 14.816C87.568 14.816 88.0534 14.6507 88.4054 14.32C88.7574 13.9893 88.9334 13.5413 88.9334 12.976C88.9334 12.4533 88.7574 12.016 88.4054 11.664C88.064 11.312 87.5787 11.136 86.9494 11.136H83.6854V14.816H86.9494ZM96.0679 16H92.4199V5.328H96.0679C97.6999 5.328 99.0172 5.83467 100.02 6.848C101.033 7.86133 101.54 9.136 101.54 10.672C101.54 12.2187 101.033 13.4933 100.02 14.496C99.0172 15.4987 97.6999 16 96.0679 16ZM96.0679 14.816C97.3265 14.816 98.3239 14.4213 99.0599 13.632C99.7959 12.8427 100.164 11.856 100.164 10.672C100.164 9.47733 99.8012 8.48533 99.0759 7.696C98.3505 6.90667 97.3479 6.512 96.0679 6.512H93.7479V14.816H96.0679ZM110.18 18.624L109.46 19.184C107.956 17.1253 107.204 14.768 107.204 12.112C107.204 9.46667 107.956 7.10933 109.46 5.04L110.18 5.584C109.615 6.704 109.193 7.76 108.916 8.752C108.649 9.744 108.516 10.864 108.516 12.112C108.516 13.36 108.649 14.4853 108.916 15.488C109.193 16.48 109.615 17.5253 110.18 18.624ZM118.005 16H111.717V5.328H113.045V14.816H118.005V16ZM125.625 15.024C124.932 15.8027 124.009 16.192 122.857 16.192C121.705 16.192 120.777 15.8027 120.073 15.024C119.38 14.2453 119.033 13.28 119.033 12.128C119.033 10.976 119.38 10.016 120.073 9.248C120.777 8.46933 121.705 8.08 122.857 8.08C124.009 8.08 124.932 8.46933 125.625 9.248C126.329 10.016 126.681 10.976 126.681 12.128C126.681 13.28 126.329 14.2453 125.625 15.024ZM120.969 14.256C121.439 14.832 122.068 15.12 122.857 15.12C123.647 15.12 124.271 14.832 124.729 14.256C125.188 13.6693 125.417 12.96 125.417 12.128C125.417 11.296 125.188 10.592 124.729 10.016C124.271 9.44 123.647 9.152 122.857 9.152C122.068 9.152 121.439 9.44533 120.969 10.032C120.511 10.608 120.281 11.3067 120.281 12.128C120.281 12.96 120.511 13.6693 120.969 14.256ZM136.526 16H135.326L133.31 9.792L131.294 16H130.094L127.63 8.272H128.878L130.766 14.432L132.798 8.272H133.822L135.854 14.432L137.742 8.272H138.99L136.526 16ZM146.049 16H144.849V9.328H143.569V8.272H144.849V7.68C144.849 6.89067 145.051 6.27733 145.457 5.84C145.862 5.392 146.406 5.168 147.089 5.168C147.579 5.168 147.969 5.25867 148.257 5.44L147.953 6.352C147.75 6.224 147.521 6.16 147.265 6.16C146.87 6.16 146.566 6.29333 146.353 6.56C146.15 6.816 146.049 7.18933 146.049 7.68V8.272H147.617V9.328H146.049V16ZM149.633 7.168C149.419 7.168 149.233 7.09333 149.073 6.944C148.913 6.784 148.833 6.592 148.833 6.368C148.833 6.144 148.913 5.952 149.073 5.792C149.233 5.632 149.419 5.552 149.633 5.552C149.857 5.552 150.049 5.632 150.209 5.792C150.369 5.952 150.449 6.144 150.449 6.368C150.449 6.592 150.369 6.784 150.209 6.944C150.049 7.09333 149.857 7.168 149.633 7.168ZM150.241 16H149.041V8.272H150.241V16ZM153.853 16H152.653V8.272H153.853V9.52C154.568 8.58133 155.426 8.112 156.429 8.112V9.344C156.28 9.312 156.12 9.296 155.949 9.296C155.586 9.296 155.192 9.424 154.765 9.68C154.338 9.936 154.034 10.2187 153.853 10.528V16ZM160.382 16.192C159.07 16.192 158.03 15.7867 157.262 14.976L157.886 14.112C158.153 14.4213 158.516 14.6827 158.974 14.896C159.444 15.1093 159.929 15.216 160.43 15.216C161.006 15.216 161.454 15.0933 161.774 14.848C162.094 14.6027 162.254 14.2827 162.254 13.888C162.254 13.5467 162.089 13.28 161.758 13.088C161.428 12.8853 161.028 12.736 160.558 12.64C160.1 12.5333 159.636 12.416 159.166 12.288C158.697 12.1493 158.297 11.92 157.966 11.6C157.636 11.2693 157.47 10.8373 157.47 10.304C157.47 9.67467 157.726 9.14667 158.238 8.72C158.761 8.29333 159.465 8.08 160.35 8.08C161.513 8.08 162.468 8.45333 163.214 9.2L162.654 10.032C162.11 9.38133 161.342 9.056 160.35 9.056C159.828 9.056 159.412 9.17333 159.102 9.408C158.793 9.632 158.638 9.92 158.638 10.272C158.638 10.5813 158.804 10.8267 159.134 11.008C159.465 11.1787 159.86 11.3173 160.318 11.424C160.788 11.52 161.257 11.6373 161.726 11.776C162.196 11.9147 162.596 12.16 162.926 12.512C163.257 12.8533 163.422 13.3013 163.422 13.856C163.422 14.5387 163.156 15.0987 162.622 15.536C162.089 15.9733 161.342 16.192 160.382 16.192ZM167.324 16.192C166.759 16.192 166.332 16.0373 166.044 15.728C165.756 15.4187 165.612 14.9707 165.612 14.384V9.328H164.332V8.272H165.612V6.16H166.812V8.272H168.38V9.328H166.812V14.128C166.812 14.4267 166.876 14.6667 167.004 14.848C167.143 15.0293 167.34 15.12 167.596 15.12C167.948 15.12 168.22 15.0133 168.412 14.8L168.764 15.696C168.412 16.0267 167.932 16.192 167.324 16.192ZM169.867 19.184L169.147 18.624C169.712 17.5253 170.134 16.48 170.411 15.488C170.688 14.4853 170.827 13.36 170.827 12.112C170.827 10.8533 170.688 9.728 170.411 8.736C170.134 7.744 169.712 6.69333 169.147 5.584L169.867 5.04C171.382 7.09867 172.139 9.456 172.139 12.112C172.139 14.7787 171.382 17.136 169.867 19.184Z" fill="white"/>
<g filter="url(#filter0_d_1_731)">
<path d="M19.75 13.8652L22.1461 16.4354L21.3437 17.7462L25.2913 20.8977M25.4197 18.899L25.2723 21.1919M23.2499 21.0733L25.7089 20.7631" stroke="#FF6D59" stroke-width="1.06906" shape-rendering="crispEdges"/>
</g>
<defs>
<filter id="filter0_d_1_731" x="10.3384" y="6.51178" width="24.6264" height="26.0797" filterUnits="userSpaceOnUse" color-interpolation-filters="sRGB">
<feFlood flood-opacity="0" result="BackgroundImageFix"/>
<feColorMatrix in="SourceAlpha" type="matrix" values="0 0 0 0 0 0 0 0 0 0 0 0 0 0 0 0 0 0 127 0" result="hardAlpha"/>
<feOffset dy="2"/>
<feGaussianBlur stdDeviation="4.5"/>
<feComposite in2="hardAlpha" operator="out"/>
<feColorMatrix type="matrix" values="0 0 0 0 0.829167 0 0 0 0 0.148559 0 0 0 0 0.148559 0 0 0 1 0"/>
<feBlend mode="normal" in2="BackgroundImageFix" result="effect1_dropShadow_1_731"/>
<feBlend mode="normal" in="SourceGraphic" in2="effect1_dropShadow_1_731" result="shape"/>
</filter>
<linearGradient id="paint0_linear_1_731" x1="22" y1="7.37628" x2="0.746703" y2="11.2594" gradientUnits="userSpaceOnUse">
<stop stop-color="#6BAB2B"/>
<stop offset="1" stop-color="#84D52C" stop-opacity="0"/>
</linearGradient>
<linearGradient id="paint1_linear_1_731" x1="22" y1="7.37628" x2="0.746703" y2="11.2594" gradientUnits="userSpaceOnUse">
<stop stop-color="#6BAB2B"/>
<stop offset="1" stop-color="#84D52C" stop-opacity="0"/>
</linearGradient>
<linearGradient id="paint2_linear_1_731" x1="22" y1="7.37628" x2="0.746703" y2="11.2594" gradientUnits="userSpaceOnUse">
<stop stop-color="#6BAB2B"/>
<stop offset="1" stop-color="#84D52C" stop-opacity="0"/>
</linearGradient>
</defs>
</svg>
