<svg width="174" height="33" viewBox="0 0 174 33" fill="none" xmlns="http://www.w3.org/2000/svg">
<path d="M4.26689 15.0258H2.00465V9.08988H0V6.96215H6.26034V9.08988H4.26689V15.0258Z" fill="#84D52C"/>
<path d="M4.26689 15.0258H2.00465V9.08988H0V6.96215H6.26034V9.08988H4.26689V15.0258Z" fill="url(#paint0_linear_1_723)" fill-opacity="0.2"/>
<path d="M14.2647 15.0258H12.0025V11.943H9.32585V15.0258H7.06362V6.96215H9.32585V9.81524H12.0025V6.96215H14.2647V15.0258Z" fill="#84D52C"/>
<path d="M14.2647 15.0258H12.0025V11.943H9.32585V15.0258H7.06362V6.96215H9.32585V9.81524H12.0025V6.96215H14.2647V15.0258Z" fill="url(#paint1_linear_1_723)" fill-opacity="0.2"/>
<path d="M19.1809 15.1708C18.0012 15.1708 17.0194 14.784 16.2355 14.0102C15.459 13.2285 15.0708 12.2251 15.0708 11C15.0708 9.76688 15.459 8.76347 16.2355 7.98975C17.012 7.21603 17.9938 6.82917 19.1809 6.82917C20.0768 6.82917 20.7973 7.05484 21.3423 7.50617C21.8948 7.95751 22.3054 8.51362 22.5742 9.17451L20.6256 10.1537C20.5285 9.83136 20.3456 9.55734 20.0768 9.33167C19.808 9.09794 19.5094 8.98108 19.1809 8.98108C18.6433 8.98108 18.2065 9.17451 17.8706 9.56137C17.5346 9.94822 17.3666 10.4278 17.3666 11C17.3666 11.5722 17.5346 12.0518 17.8706 12.4386C18.2065 12.8255 18.6433 13.0189 19.1809 13.0189C19.5094 13.0189 19.808 12.9061 20.0768 12.6804C20.3456 12.4467 20.5285 12.1686 20.6256 11.8463L22.5742 12.8134C22.4548 13.1116 22.3054 13.3897 22.1263 13.6476C21.9471 13.8974 21.7231 14.1432 21.4543 14.385C21.1855 14.6268 20.8533 14.8202 20.4576 14.9653C20.0693 15.1023 19.6438 15.1708 19.1809 15.1708Z" fill="#84D52C"/>
<path d="M19.1809 15.1708C18.0012 15.1708 17.0194 14.784 16.2355 14.0102C15.459 13.2285 15.0708 12.2251 15.0708 11C15.0708 9.76688 15.459 8.76347 16.2355 7.98975C17.012 7.21603 17.9938 6.82917 19.1809 6.82917C20.0768 6.82917 20.7973 7.05484 21.3423 7.50617C21.8948 7.95751 22.3054 8.51362 22.5742 9.17451L20.6256 10.1537C20.5285 9.83136 20.3456 9.55734 20.0768 9.33167C19.808 9.09794 19.5094 8.98108 19.1809 8.98108C18.6433 8.98108 18.2065 9.17451 17.8706 9.56137C17.5346 9.94822 17.3666 10.4278 17.3666 11C17.3666 11.5722 17.5346 12.0518 17.8706 12.4386C18.2065 12.8255 18.6433 13.0189 19.1809 13.0189C19.5094 13.0189 19.808 12.9061 20.0768 12.6804C20.3456 12.4467 20.5285 12.1686 20.6256 11.8463L22.5742 12.8134C22.4548 13.1116 22.3054 13.3897 22.1263 13.6476C21.9471 13.8974 21.7231 14.1432 21.4543 14.385C21.1855 14.6268 20.8533 14.8202 20.4576 14.9653C20.0693 15.1023 19.6438 15.1708 19.1809 15.1708Z" fill="url(#paint2_linear_1_723)" fill-opacity="0.2"/>
<path d="M38.7902 16H37.4622V6.512H34.0862V5.328H42.1822V6.512H38.7902V16ZM48.1995 15.024C47.5061 15.8027 46.5835 16.192 45.4315 16.192C44.2795 16.192 43.3515 15.8027 42.6475 15.024C41.9541 14.2453 41.6075 13.28 41.6075 12.128C41.6075 10.976 41.9541 10.016 42.6475 9.248C43.3515 8.46933 44.2795 8.08 45.4315 8.08C46.5835 8.08 47.5061 8.46933 48.1995 9.248C48.9035 10.016 49.2555 10.976 49.2555 12.128C49.2555 13.28 48.9035 14.2453 48.1995 15.024ZM43.5435 14.256C44.0128 14.832 44.6421 15.12 45.4315 15.12C46.2208 15.12 46.8448 14.832 47.3035 14.256C47.7621 13.6693 47.9915 12.96 47.9915 12.128C47.9915 11.296 47.7621 10.592 47.3035 10.016C46.8448 9.44 46.2208 9.152 45.4315 9.152C44.6421 9.152 44.0128 9.44533 43.5435 10.032C43.0848 10.608 42.8555 11.3067 42.8555 12.128C42.8555 12.96 43.0848 13.6693 43.5435 14.256ZM53.1637 16.192C52.5984 16.192 52.1717 16.0373 51.8837 15.728C51.5957 15.4187 51.4517 14.9707 51.4517 14.384V9.328H50.1717V8.272H51.4517V6.16H52.6517V8.272H54.2197V9.328H52.6517V14.128C52.6517 14.4267 52.7157 14.6667 52.8437 14.848C52.9824 15.0293 53.1797 15.12 53.4357 15.12C53.7877 15.12 54.0597 15.0133 54.2517 14.8L54.6037 15.696C54.2517 16.0267 53.7717 16.192 53.1637 16.192ZM61.9468 16H60.7468V15.12C60.0962 15.8347 59.2428 16.192 58.1868 16.192C57.4722 16.192 56.8428 15.9627 56.2988 15.504C55.7548 15.0453 55.4828 14.4213 55.4828 13.632C55.4828 12.8213 55.7495 12.1973 56.2828 11.76C56.8268 11.312 57.4615 11.088 58.1868 11.088C59.2855 11.088 60.1388 11.44 60.7468 12.144V10.752C60.7468 10.24 60.5655 9.84 60.2028 9.552C59.8402 9.264 59.3708 9.12 58.7948 9.12C57.8882 9.12 57.0988 9.47733 56.4268 10.192L55.8668 9.36C56.6882 8.50667 57.7175 8.08 58.9548 8.08C59.8402 8.08 60.5602 8.29333 61.1148 8.72C61.6695 9.14667 61.9468 9.80267 61.9468 10.688V16ZM58.6188 15.328C59.5788 15.328 60.2882 15.008 60.7468 14.368V12.912C60.2882 12.272 59.5788 11.952 58.6188 11.952C58.0642 11.952 57.6055 12.112 57.2428 12.432C56.8908 12.7413 56.7148 13.1467 56.7148 13.648C56.7148 14.1387 56.8908 14.544 57.2428 14.864C57.6055 15.1733 58.0642 15.328 58.6188 15.328ZM65.5523 16H64.3523V5.328H65.5523V16ZM76.0871 16H74.7591V6.512H71.3831V5.328H79.4791V6.512H76.0871V16ZM90.1401 16H88.8121V11.104H82.5721V16H81.2441V5.328H82.5721V9.92H88.8121V5.328H90.1401V16ZM97.6907 16.192C96.1334 16.192 94.8267 15.68 93.7707 14.656C92.7254 13.6213 92.2027 12.2933 92.2027 10.672C92.2027 9.05067 92.7254 7.728 93.7707 6.704C94.8267 5.66933 96.1334 5.152 97.6907 5.152C99.3974 5.152 100.747 5.856 101.739 7.264L100.619 7.888C100.309 7.42933 99.8934 7.056 99.3707 6.768C98.8481 6.48 98.2881 6.336 97.6907 6.336C96.5174 6.336 95.5361 6.74667 94.7467 7.568C93.9681 8.37867 93.5787 9.41333 93.5787 10.672C93.5787 11.9307 93.9681 12.9707 94.7467 13.792C95.5361 14.6027 96.5174 15.008 97.6907 15.008C98.2881 15.008 98.8481 14.8693 99.3707 14.592C99.8934 14.304 100.309 13.9253 100.619 13.456L101.755 14.08C100.72 15.488 99.3654 16.192 97.6907 16.192ZM110.004 18.624L109.284 19.184C107.78 17.1253 107.028 14.768 107.028 12.112C107.028 9.46667 107.78 7.10933 109.284 5.04L110.004 5.584C109.439 6.704 109.018 7.76 108.74 8.752C108.474 9.744 108.34 10.864 108.34 12.112C108.34 13.36 108.474 14.4853 108.74 15.488C109.018 16.48 109.439 17.5253 110.004 18.624ZM117.829 16H111.541V5.328H112.869V14.816H117.829V16ZM125.449 15.024C124.756 15.8027 123.833 16.192 122.681 16.192C121.529 16.192 120.601 15.8027 119.897 15.024C119.204 14.2453 118.857 13.28 118.857 12.128C118.857 10.976 119.204 10.016 119.897 9.248C120.601 8.46933 121.529 8.08 122.681 8.08C123.833 8.08 124.756 8.46933 125.449 9.248C126.153 10.016 126.505 10.976 126.505 12.128C126.505 13.28 126.153 14.2453 125.449 15.024ZM120.793 14.256C121.263 14.832 121.892 15.12 122.681 15.12C123.471 15.12 124.095 14.832 124.553 14.256C125.012 13.6693 125.241 12.96 125.241 12.128C125.241 11.296 125.012 10.592 124.553 10.016C124.095 9.44 123.471 9.152 122.681 9.152C121.892 9.152 121.263 9.44533 120.793 10.032C120.335 10.608 120.105 11.3067 120.105 12.128C120.105 12.96 120.335 13.6693 120.793 14.256ZM136.35 16H135.15L133.134 9.792L131.118 16H129.918L127.454 8.272H128.702L130.59 14.432L132.622 8.272H133.646L135.678 14.432L137.566 8.272H138.814L136.35 16ZM145.873 16H144.673V9.328H143.393V8.272H144.673V7.68C144.673 6.89067 144.875 6.27733 145.281 5.84C145.686 5.392 146.23 5.168 146.913 5.168C147.403 5.168 147.793 5.25867 148.081 5.44L147.777 6.352C147.574 6.224 147.345 6.16 147.089 6.16C146.694 6.16 146.39 6.29333 146.177 6.56C145.974 6.816 145.873 7.18933 145.873 7.68V8.272H147.441V9.328H145.873V16ZM149.457 7.168C149.243 7.168 149.057 7.09333 148.897 6.944C148.737 6.784 148.657 6.592 148.657 6.368C148.657 6.144 148.737 5.952 148.897 5.792C149.057 5.632 149.243 5.552 149.457 5.552C149.681 5.552 149.873 5.632 150.033 5.792C150.193 5.952 150.273 6.144 150.273 6.368C150.273 6.592 150.193 6.784 150.033 6.944C149.873 7.09333 149.681 7.168 149.457 7.168ZM150.065 16H148.865V8.272H150.065V16ZM153.677 16H152.477V8.272H153.677V9.52C154.392 8.58133 155.251 8.112 156.253 8.112V9.344C156.104 9.312 155.944 9.296 155.773 9.296C155.411 9.296 155.016 9.424 154.589 9.68C154.163 9.936 153.859 10.2187 153.677 10.528V16ZM160.207 16.192C158.895 16.192 157.855 15.7867 157.087 14.976L157.711 14.112C157.977 14.4213 158.34 14.6827 158.799 14.896C159.268 15.1093 159.753 15.216 160.255 15.216C160.831 15.216 161.279 15.0933 161.599 14.848C161.919 14.6027 162.079 14.2827 162.079 13.888C162.079 13.5467 161.913 13.28 161.583 13.088C161.252 12.8853 160.852 12.736 160.383 12.64C159.924 12.5333 159.46 12.416 158.991 12.288C158.521 12.1493 158.121 11.92 157.791 11.6C157.46 11.2693 157.295 10.8373 157.295 10.304C157.295 9.67467 157.551 9.14667 158.063 8.72C158.585 8.29333 159.289 8.08 160.175 8.08C161.337 8.08 162.292 8.45333 163.039 9.2L162.479 10.032C161.935 9.38133 161.167 9.056 160.175 9.056C159.652 9.056 159.236 9.17333 158.927 9.408C158.617 9.632 158.463 9.92 158.463 10.272C158.463 10.5813 158.628 10.8267 158.959 11.008C159.289 11.1787 159.684 11.3173 160.143 11.424C160.612 11.52 161.081 11.6373 161.551 11.776C162.02 11.9147 162.42 12.16 162.751 12.512C163.081 12.8533 163.247 13.3013 163.247 13.856C163.247 14.5387 162.98 15.0987 162.447 15.536C161.913 15.9733 161.167 16.192 160.207 16.192ZM167.148 16.192C166.583 16.192 166.156 16.0373 165.868 15.728C165.58 15.4187 165.436 14.9707 165.436 14.384V9.328H164.156V8.272H165.436V6.16H166.636V8.272H168.204V9.328H166.636V14.128C166.636 14.4267 166.7 14.6667 166.828 14.848C166.967 15.0293 167.164 15.12 167.42 15.12C167.772 15.12 168.044 15.0133 168.236 14.8L168.588 15.696C168.236 16.0267 167.756 16.192 167.148 16.192ZM169.691 19.184L168.971 18.624C169.537 17.5253 169.958 16.48 170.235 15.488C170.513 14.4853 170.651 13.36 170.651 12.112C170.651 10.8533 170.513 9.728 170.235 8.736C169.958 7.744 169.537 6.69333 168.971 5.584L169.691 5.04C171.206 7.09867 171.963 9.456 171.963 12.112C171.963 14.7787 171.206 17.136 169.691 19.184Z" fill="white"/>
<g filter="url(#filter0_d_1_723)">
<path d="M19.8164 13.8652L22.2204 16.4354L21.4154 17.7462L25.3761 20.8977M25.505 18.8989L25.3571 21.1919M23.3279 21.0733L25.7951 20.763" stroke="#FF6D59" stroke-width="1.06906" shape-rendering="crispEdges"/>
</g>
<defs>
<filter id="filter0_d_1_723" x="10.4042" y="6.51177" width="24.6465" height="26.079" filterUnits="userSpaceOnUse" color-interpolation-filters="sRGB">
<feFlood flood-opacity="0" result="BackgroundImageFix"/>
<feColorMatrix in="SourceAlpha" type="matrix" values="0 0 0 0 0 0 0 0 0 0 0 0 0 0 0 0 0 0 127 0" result="hardAlpha"/>
<feOffset dy="2"/>
<feGaussianBlur stdDeviation="4.5"/>
<feComposite in2="hardAlpha" operator="out"/>
<feColorMatrix type="matrix" values="0 0 0 0 0.829167 0 0 0 0 0.148559 0 0 0 0 0.148559 0 0 0 1 0"/>
<feBlend mode="normal" in2="BackgroundImageFix" result="effect1_dropShadow_1_723"/>
<feBlend mode="normal" in="SourceGraphic" in2="effect1_dropShadow_1_723" result="shape"/>
</filter>
<linearGradient id="paint0_linear_1_723" x1="22.5742" y1="6.82917" x2="0.620651" y2="10.4051" gradientUnits="userSpaceOnUse">
<stop stop-color="#6BAB2B"/>
<stop offset="1" stop-color="#84D52C" stop-opacity="0"/>
</linearGradient>
<linearGradient id="paint1_linear_1_723" x1="22.5742" y1="6.82917" x2="0.620651" y2="10.4051" gradientUnits="userSpaceOnUse">
<stop stop-color="#6BAB2B"/>
<stop offset="1" stop-color="#84D52C" stop-opacity="0"/>
</linearGradient>
<linearGradient id="paint2_linear_1_723" x1="22.5742" y1="6.82917" x2="0.620651" y2="10.4051" gradientUnits="userSpaceOnUse">
<stop stop-color="#6BAB2B"/>
<stop offset="1" stop-color="#84D52C" stop-opacity="0"/>
</linearGradient>
</defs>
</svg>
