<svg width="186" height="58" viewBox="0 0 186 58" fill="none" xmlns="http://www.w3.org/2000/svg">
<path d="M13.2669 16.0258H11.0047V10.0899H9V7.96216H15.2603V10.0899H13.2669V16.0258Z" fill="#84D52C"/>
<path d="M13.2669 16.0258H11.0047V10.0899H9V7.96216H15.2603V10.0899H13.2669V16.0258Z" fill="url(#paint0_linear_1_719)" fill-opacity="0.2"/>
<path d="M23.2647 16.0258H21.0025V12.943H18.3259V16.0258H16.0636V7.96216H18.3259V10.8152H21.0025V7.96216H23.2647V16.0258Z" fill="#84D52C"/>
<path d="M23.2647 16.0258H21.0025V12.943H18.3259V16.0258H16.0636V7.96216H18.3259V10.8152H21.0025V7.96216H23.2647V16.0258Z" fill="url(#paint1_linear_1_719)" fill-opacity="0.2"/>
<path d="M28.1809 16.1708C27.0012 16.1708 26.0194 15.784 25.2355 15.0103C24.459 14.2285 24.0708 13.2251 24.0708 12C24.0708 10.7669 24.459 9.76348 25.2355 8.98976C26.012 8.21604 26.9938 7.82918 28.1809 7.82918C29.0768 7.82918 29.7973 8.05485 30.3423 8.50618C30.8948 8.95752 31.3054 9.51363 31.5742 10.1745L29.6256 11.1538C29.5285 10.8314 29.3456 10.5573 29.0768 10.3317C28.808 10.0979 28.5094 9.98108 28.1809 9.98108C27.6433 9.98108 27.2065 10.1745 26.8706 10.5614C26.5346 10.9482 26.3666 11.4278 26.3666 12C26.3666 12.5722 26.5346 13.0518 26.8706 13.4386C27.2065 13.8255 27.6433 14.0189 28.1809 14.0189C28.5094 14.0189 28.808 13.9061 29.0768 13.6804C29.3456 13.4467 29.5285 13.1686 29.6256 12.8463L31.5742 13.8134C31.4548 14.1116 31.3054 14.3897 31.1263 14.6476C30.9471 14.8974 30.7231 15.1432 30.4543 15.385C30.1855 15.6268 29.8533 15.8202 29.4576 15.9653C29.0693 16.1023 28.6438 16.1708 28.1809 16.1708Z" fill="#84D52C"/>
<path d="M28.1809 16.1708C27.0012 16.1708 26.0194 15.784 25.2355 15.0103C24.459 14.2285 24.0708 13.2251 24.0708 12C24.0708 10.7669 24.459 9.76348 25.2355 8.98976C26.012 8.21604 26.9938 7.82918 28.1809 7.82918C29.0768 7.82918 29.7973 8.05485 30.3423 8.50618C30.8948 8.95752 31.3054 9.51363 31.5742 10.1745L29.6256 11.1538C29.5285 10.8314 29.3456 10.5573 29.0768 10.3317C28.808 10.0979 28.5094 9.98108 28.1809 9.98108C27.6433 9.98108 27.2065 10.1745 26.8706 10.5614C26.5346 10.9482 26.3666 11.4278 26.3666 12C26.3666 12.5722 26.5346 13.0518 26.8706 13.4386C27.2065 13.8255 27.6433 14.0189 28.1809 14.0189C28.5094 14.0189 28.808 13.9061 29.0768 13.6804C29.3456 13.4467 29.5285 13.1686 29.6256 12.8463L31.5742 13.8134C31.4548 14.1116 31.3054 14.3897 31.1263 14.6476C30.9471 14.8974 30.7231 15.1432 30.4543 15.385C30.1855 15.6268 29.8533 15.8202 29.4576 15.9653C29.0693 16.1023 28.6438 16.1708 28.1809 16.1708Z" fill="url(#paint2_linear_1_719)" fill-opacity="0.2"/>
<path d="M46.7902 17H45.4622V7.512H42.0862V6.328H50.1822V7.512H46.7902V17ZM56.1995 16.024C55.5061 16.8027 54.5835 17.192 53.4315 17.192C52.2795 17.192 51.3515 16.8027 50.6475 16.024C49.9541 15.2453 49.6075 14.28 49.6075 13.128C49.6075 11.976 49.9541 11.016 50.6475 10.248C51.3515 9.46933 52.2795 9.08 53.4315 9.08C54.5835 9.08 55.5061 9.46933 56.1995 10.248C56.9035 11.016 57.2555 11.976 57.2555 13.128C57.2555 14.28 56.9035 15.2453 56.1995 16.024ZM51.5435 15.256C52.0128 15.832 52.6421 16.12 53.4315 16.12C54.2208 16.12 54.8448 15.832 55.3035 15.256C55.7621 14.6693 55.9915 13.96 55.9915 13.128C55.9915 12.296 55.7621 11.592 55.3035 11.016C54.8448 10.44 54.2208 10.152 53.4315 10.152C52.6421 10.152 52.0128 10.4453 51.5435 11.032C51.0848 11.608 50.8555 12.3067 50.8555 13.128C50.8555 13.96 51.0848 14.6693 51.5435 15.256ZM61.1637 17.192C60.5984 17.192 60.1717 17.0373 59.8837 16.728C59.5957 16.4187 59.4517 15.9707 59.4517 15.384V10.328H58.1717V9.272H59.4517V7.16H60.6517V9.272H62.2197V10.328H60.6517V15.128C60.6517 15.4267 60.7157 15.6667 60.8437 15.848C60.9824 16.0293 61.1797 16.12 61.4357 16.12C61.7877 16.12 62.0597 16.0133 62.2517 15.8L62.6037 16.696C62.2517 17.0267 61.7717 17.192 61.1637 17.192ZM69.9468 17H68.7468V16.12C68.0962 16.8347 67.2428 17.192 66.1868 17.192C65.4722 17.192 64.8428 16.9627 64.2988 16.504C63.7548 16.0453 63.4828 15.4213 63.4828 14.632C63.4828 13.8213 63.7495 13.1973 64.2828 12.76C64.8268 12.312 65.4615 12.088 66.1868 12.088C67.2855 12.088 68.1388 12.44 68.7468 13.144V11.752C68.7468 11.24 68.5655 10.84 68.2028 10.552C67.8402 10.264 67.3708 10.12 66.7948 10.12C65.8882 10.12 65.0988 10.4773 64.4268 11.192L63.8668 10.36C64.6882 9.50667 65.7175 9.08 66.9548 9.08C67.8402 9.08 68.5602 9.29333 69.1148 9.72C69.6695 10.1467 69.9468 10.8027 69.9468 11.688V17ZM66.6188 16.328C67.5788 16.328 68.2882 16.008 68.7468 15.368V13.912C68.2882 13.272 67.5788 12.952 66.6188 12.952C66.0642 12.952 65.6055 13.112 65.2428 13.432C64.8908 13.7413 64.7148 14.1467 64.7148 14.648C64.7148 15.1387 64.8908 15.544 65.2428 15.864C65.6055 16.1733 66.0642 16.328 66.6188 16.328ZM73.5523 17H72.3523V6.328H73.5523V17ZM84.0871 17H82.7591V7.512H79.3831V6.328H87.4791V7.512H84.0871V17ZM98.1401 17H96.8121V12.104H90.5721V17H89.2441V6.328H90.5721V10.92H96.8121V6.328H98.1401V17ZM105.691 17.192C104.133 17.192 102.827 16.68 101.771 15.656C100.725 14.6213 100.203 13.2933 100.203 11.672C100.203 10.0507 100.725 8.728 101.771 7.704C102.827 6.66933 104.133 6.152 105.691 6.152C107.397 6.152 108.747 6.856 109.739 8.264L108.619 8.888C108.309 8.42933 107.893 8.056 107.371 7.768C106.848 7.48 106.288 7.336 105.691 7.336C104.517 7.336 103.536 7.74667 102.747 8.568C101.968 9.37867 101.579 10.4133 101.579 11.672C101.579 12.9307 101.968 13.9707 102.747 14.792C103.536 15.6027 104.517 16.008 105.691 16.008C106.288 16.008 106.848 15.8693 107.371 15.592C107.893 15.304 108.309 14.9253 108.619 14.456L109.755 15.08C108.72 16.488 107.365 17.192 105.691 17.192ZM118.004 19.624L117.284 20.184C115.78 18.1253 115.028 15.768 115.028 13.112C115.028 10.4667 115.78 8.10933 117.284 6.04L118.004 6.584C117.439 7.704 117.018 8.76 116.74 9.752C116.474 10.744 116.34 11.864 116.34 13.112C116.34 14.36 116.474 15.4853 116.74 16.488C117.018 17.48 117.439 18.5253 118.004 19.624ZM128.437 17H127.109V12.104H120.869V17H119.541V6.328H120.869V10.92H127.109V6.328H128.437V17ZM131.476 8.168C131.262 8.168 131.076 8.09333 130.916 7.944C130.756 7.784 130.676 7.592 130.676 7.368C130.676 7.144 130.756 6.952 130.916 6.792C131.076 6.632 131.262 6.552 131.476 6.552C131.7 6.552 131.892 6.632 132.052 6.792C132.212 6.952 132.292 7.144 132.292 7.368C132.292 7.592 132.212 7.784 132.052 7.944C131.892 8.09333 131.7 8.168 131.476 8.168ZM132.084 17H130.884V9.272H132.084V17ZM137.581 20.136C136.899 20.136 136.317 20.0507 135.837 19.88C135.357 19.72 134.899 19.4213 134.461 18.984L135.069 18.088C135.656 18.792 136.493 19.144 137.581 19.144C138.296 19.144 138.888 18.952 139.357 18.568C139.827 18.1947 140.061 17.6133 140.061 16.824V15.72C139.773 16.1253 139.4 16.456 138.941 16.712C138.483 16.968 137.992 17.096 137.469 17.096C136.445 17.096 135.613 16.7387 134.973 16.024C134.344 15.2987 134.029 14.3227 134.029 13.096C134.029 11.8693 134.344 10.8933 134.973 10.168C135.613 9.44267 136.445 9.08 137.469 9.08C138.525 9.08 139.389 9.53333 140.061 10.44V9.272H141.261V16.776C141.261 17.96 140.915 18.8133 140.221 19.336C139.528 19.8693 138.648 20.136 137.581 20.136ZM137.757 16.04C138.216 16.04 138.659 15.9173 139.085 15.672C139.523 15.4267 139.848 15.128 140.061 14.776V11.4C139.848 11.048 139.528 10.7547 139.101 10.52C138.675 10.2747 138.227 10.152 137.757 10.152C136.989 10.152 136.381 10.424 135.933 10.968C135.496 11.512 135.277 12.2213 135.277 13.096C135.277 13.96 135.501 14.6693 135.949 15.224C136.397 15.768 137 16.04 137.757 16.04ZM150.097 17H148.897V11.912C148.897 11.272 148.748 10.8187 148.449 10.552C148.15 10.2853 147.718 10.152 147.153 10.152C146.716 10.152 146.284 10.2693 145.857 10.504C145.441 10.7387 145.11 11.0213 144.865 11.352V17H143.665V6.328H144.865V10.392C145.164 10.04 145.564 9.736 146.065 9.48C146.566 9.21333 147.089 9.08 147.633 9.08C149.276 9.08 150.097 9.90133 150.097 11.544V17ZM158.154 17H156.954V10.328H155.674V9.272H156.954V8.68C156.954 7.89067 157.157 7.27733 157.562 6.84C157.967 6.392 158.511 6.168 159.194 6.168C159.685 6.168 160.074 6.25867 160.362 6.44L160.058 7.352C159.855 7.224 159.626 7.16 159.37 7.16C158.975 7.16 158.671 7.29333 158.458 7.56C158.255 7.816 158.154 8.18933 158.154 8.68V9.272H159.722V10.328H158.154V17ZM161.738 8.168C161.525 8.168 161.338 8.09333 161.178 7.944C161.018 7.784 160.938 7.592 160.938 7.368C160.938 7.144 161.018 6.952 161.178 6.792C161.338 6.632 161.525 6.552 161.738 6.552C161.962 6.552 162.154 6.632 162.314 6.792C162.474 6.952 162.554 7.144 162.554 7.368C162.554 7.592 162.474 7.784 162.314 7.944C162.154 8.09333 161.962 8.168 161.738 8.168ZM162.346 17H161.146V9.272H162.346V17ZM165.959 17H164.759V9.272H165.959V10.52C166.673 9.58133 167.532 9.112 168.535 9.112V10.344C168.385 10.312 168.225 10.296 168.055 10.296C167.692 10.296 167.297 10.424 166.871 10.68C166.444 10.936 166.14 11.2187 165.959 11.528V17ZM172.488 17.192C171.176 17.192 170.136 16.7867 169.368 15.976L169.992 15.112C170.259 15.4213 170.621 15.6827 171.08 15.896C171.549 16.1093 172.035 16.216 172.536 16.216C173.112 16.216 173.56 16.0933 173.88 15.848C174.2 15.6027 174.36 15.2827 174.36 14.888C174.36 14.5467 174.195 14.28 173.864 14.088C173.533 13.8853 173.133 13.736 172.664 13.64C172.205 13.5333 171.741 13.416 171.272 13.288C170.803 13.1493 170.403 12.92 170.072 12.6C169.741 12.2693 169.576 11.8373 169.576 11.304C169.576 10.6747 169.832 10.1467 170.344 9.72C170.867 9.29333 171.571 9.08 172.456 9.08C173.619 9.08 174.573 9.45333 175.32 10.2L174.76 11.032C174.216 10.3813 173.448 10.056 172.456 10.056C171.933 10.056 171.517 10.1733 171.208 10.408C170.899 10.632 170.744 10.92 170.744 11.272C170.744 11.5813 170.909 11.8267 171.24 12.008C171.571 12.1787 171.965 12.3173 172.424 12.424C172.893 12.52 173.363 12.6373 173.832 12.776C174.301 12.9147 174.701 13.16 175.032 13.512C175.363 13.8533 175.528 14.3013 175.528 14.856C175.528 15.5387 175.261 16.0987 174.728 16.536C174.195 16.9733 173.448 17.192 172.488 17.192ZM179.429 17.192C178.864 17.192 178.437 17.0373 178.149 16.728C177.861 16.4187 177.717 15.9707 177.717 15.384V10.328H176.437V9.272H177.717V7.16H178.917V9.272H180.485V10.328H178.917V15.128C178.917 15.4267 178.981 15.6667 179.109 15.848C179.248 16.0293 179.445 16.12 179.701 16.12C180.053 16.12 180.325 16.0133 180.517 15.8L180.869 16.696C180.517 17.0267 180.037 17.192 179.429 17.192ZM181.972 20.184L181.252 19.624C181.818 18.5253 182.239 17.48 182.516 16.488C182.794 15.4853 182.932 14.36 182.932 13.112C182.932 11.8533 182.794 10.728 182.516 9.736C182.239 8.744 181.818 7.69333 181.252 6.584L181.972 6.04C183.487 8.09867 184.244 10.456 184.244 13.112C184.244 15.7787 183.487 18.136 181.972 20.184Z" fill="white"/>
<g filter="url(#filter0_di_1_719)">
<path d="M25.9961 21.6952L28.7513 19.1756L30.1971 19.9731L33.5551 15.845M31.3725 15.7555L33.8764 15.8582M33.7877 17.9412L33.3998 15.4183" stroke="#7ACB22" stroke-width="1.06906" shape-rendering="crispEdges"/>
</g>
<defs>
<filter id="filter0_di_1_719" x="0.635376" y="0.221375" width="58.6806" height="56.8683" filterUnits="userSpaceOnUse" color-interpolation-filters="sRGB">
<feFlood flood-opacity="0" result="BackgroundImageFix"/>
<feColorMatrix in="SourceAlpha" type="matrix" values="0 0 0 0 0 0 0 0 0 0 0 0 0 0 0 0 0 0 127 0" result="hardAlpha"/>
<feOffset dy="10"/>
<feGaussianBlur stdDeviation="12.5"/>
<feComposite in2="hardAlpha" operator="out"/>
<feColorMatrix type="matrix" values="0 0 0 0 0.0588235 0 0 0 0 0.0588235 0 0 0 0 0.0901961 0 0 0 0.35 0"/>
<feBlend mode="normal" in2="BackgroundImageFix" result="effect1_dropShadow_1_719"/>
<feBlend mode="normal" in="SourceGraphic" in2="effect1_dropShadow_1_719" result="shape"/>
<feColorMatrix in="SourceAlpha" type="matrix" values="0 0 0 0 0 0 0 0 0 0 0 0 0 0 0 0 0 0 127 0" result="hardAlpha"/>
<feOffset dx="5" dy="10"/>
<feGaussianBlur stdDeviation="7.5"/>
<feComposite in2="hardAlpha" operator="arithmetic" k2="-1" k3="1"/>
<feColorMatrix type="matrix" values="0 0 0 0 1 0 0 0 0 1 0 0 0 0 1 0 0 0 0.5 0"/>
<feBlend mode="normal" in2="shape" result="effect2_innerShadow_1_719"/>
</filter>
<linearGradient id="paint0_linear_1_719" x1="31.5742" y1="7.82918" x2="9.62065" y2="11.4051" gradientUnits="userSpaceOnUse">
<stop stop-color="#6BAB2B"/>
<stop offset="1" stop-color="#84D52C" stop-opacity="0"/>
</linearGradient>
<linearGradient id="paint1_linear_1_719" x1="31.5742" y1="7.82918" x2="9.62065" y2="11.4051" gradientUnits="userSpaceOnUse">
<stop stop-color="#6BAB2B"/>
<stop offset="1" stop-color="#84D52C" stop-opacity="0"/>
</linearGradient>
<linearGradient id="paint2_linear_1_719" x1="31.5742" y1="7.82918" x2="9.62065" y2="11.4051" gradientUnits="userSpaceOnUse">
<stop stop-color="#6BAB2B"/>
<stop offset="1" stop-color="#84D52C" stop-opacity="0"/>
</linearGradient>
</defs>
</svg>
